<mxGraphModel><root><mxCell id="0"/><mxCell id="1" parent="0"/><mxCell id="2" value="Database Cluster" style="whiteSpace=wrap;strokeWidth=2;" vertex="1" parent="1"><mxGeometry x="988" y="8" width="245" height="1013" as="geometry"/></mxCell><mxCell id="3" value="Notification Service" style="whiteSpace=wrap;strokeWidth=2;" vertex="1" parent="1"><mxGeometry x="421" y="899" width="517" height="122" as="geometry"/></mxCell><mxCell id="4" value="Payment Service" style="whiteSpace=wrap;strokeWidth=2;" vertex="1" parent="1"><mxGeometry x="421" y="150" width="517" height="122" as="geometry"/></mxCell><mxCell id="5" value="Order Service" style="whiteSpace=wrap;strokeWidth=2;" vertex="1" parent="1"><mxGeometry x="421" y="757" width="517" height="122" as="geometry"/></mxCell><mxCell id="6" value="Cart Service" style="whiteSpace=wrap;strokeWidth=2;" vertex="1" parent="1"><mxGeometry x="421" y="615" width="517" height="122" as="geometry"/></mxCell><mxCell id="7" value="Product Service" style="whiteSpace=wrap;strokeWidth=2;" vertex="1" parent="1"><mxGeometry x="421" y="473" width="517" height="122" as="geometry"/></mxCell><mxCell id="8" value="Authentication Service" style="whiteSpace=wrap;strokeWidth=2;" vertex="1" parent="1"><mxGeometry x="421" y="8" width="517" height="122" as="geometry"/></mxCell><mxCell id="9" value="API Gateway" style="whiteSpace=wrap;strokeWidth=2;" vertex="1" parent="1"><mxGeometry x="194" y="292" width="474" height="161" as="geometry"/></mxCell><mxCell id="10" value="Frontend" style="whiteSpace=wrap;strokeWidth=2;" vertex="1" parent="1"><mxGeometry x="8" y="716" width="363" height="132" as="geometry"/></mxCell><mxCell id="11" value="Next.js" style="whiteSpace=wrap;strokeWidth=2;" vertex="1" parent="1"><mxGeometry x="33" y="751" width="111" height="52" as="geometry"/></mxCell><mxCell id="12" value="React" style="rounded=1;arcSize=40;strokeWidth=2" vertex="1" parent="1"><mxGeometry x="248" y="761" width="69" height="52" as="geometry"/></mxCell><mxCell id="13" value="REST APIs" style="whiteSpace=wrap;strokeWidth=2;" vertex="1" parent="1"><mxGeometry x="219" y="347" width="127" height="52" as="geometry"/></mxCell><mxCell id="14" value="Gateway" style="rounded=1;arcSize=40;strokeWidth=2" vertex="1" parent="1"><mxGeometry x="498" y="327" width="93" height="52" as="geometry"/></mxCell><mxCell id="15" value="Auth Server" style="whiteSpace=wrap;strokeWidth=2;" vertex="1" parent="1"><mxGeometry x="473" y="43" width="144" height="52" as="geometry"/></mxCell><mxCell id="16" value="User DB" style="whiteSpace=wrap;strokeWidth=2;" vertex="1" parent="1"><mxGeometry x="758" y="43" width="115" height="52" as="geometry"/></mxCell><mxCell id="17" value="Product Server" style="whiteSpace=wrap;strokeWidth=2;" vertex="1" parent="1"><mxGeometry x="462" y="508" width="166" height="52" as="geometry"/></mxCell><mxCell id="18" value="Product DB" style="whiteSpace=wrap;strokeWidth=2;" vertex="1" parent="1"><mxGeometry x="747" y="508" width="138" height="52" as="geometry"/></mxCell><mxCell id="19" value="Cart Server" style="whiteSpace=wrap;strokeWidth=2;" vertex="1" parent="1"><mxGeometry x="474" y="650" width="142" height="52" as="geometry"/></mxCell><mxCell id="20" value="Cart DB" style="whiteSpace=wrap;strokeWidth=2;" vertex="1" parent="1"><mxGeometry x="759" y="650" width="114" height="52" as="geometry"/></mxCell><mxCell id="21" value="Order Server" style="whiteSpace=wrap;strokeWidth=2;" vertex="1" parent="1"><mxGeometry x="468" y="792" width="153" height="52" as="geometry"/></mxCell><mxCell id="22" value="Order DB" style="whiteSpace=wrap;strokeWidth=2;" vertex="1" parent="1"><mxGeometry x="753" y="792" width="125" height="52" as="geometry"/></mxCell><mxCell id="23" value="Payment Server" style="whiteSpace=wrap;strokeWidth=2;" vertex="1" parent="1"><mxGeometry x="459" y="185" width="172" height="52" as="geometry"/></mxCell><mxCell id="24" value="Payment Gateway" style="whiteSpace=wrap;strokeWidth=2;" vertex="1" parent="1"><mxGeometry x="722" y="185" width="188" height="52" as="geometry"/></mxCell><mxCell id="25" value="Notification Server" style="whiteSpace=wrap;strokeWidth=2;" vertex="1" parent="1"><mxGeometry x="446" y="934" width="197" height="52" as="geometry"/></mxCell><mxCell id="26" value="Notification Queue" style="whiteSpace=wrap;strokeWidth=2;" vertex="1" parent="1"><mxGeometry x="718" y="934" width="195" height="52" as="geometry"/></mxCell><mxCell id="27" value="User DB" style="whiteSpace=wrap;strokeWidth=2;" vertex="1" parent="1"><mxGeometry x="1053" y="43" width="115" height="52" as="geometry"/></mxCell><mxCell id="28" value="Product DB" style="whiteSpace=wrap;strokeWidth=2;" vertex="1" parent="1"><mxGeometry x="1042" y="508" width="138" height="52" as="geometry"/></mxCell><mxCell id="29" value="Cart DB" style="whiteSpace=wrap;strokeWidth=2;" vertex="1" parent="1"><mxGeometry x="1054" y="650" width="114" height="52" as="geometry"/></mxCell><mxCell id="30" value="Order DB" style="whiteSpace=wrap;strokeWidth=2;" vertex="1" parent="1"><mxGeometry x="1048" y="792" width="125" height="52" as="geometry"/></mxCell><mxCell id="31" value="Notification Queue" style="whiteSpace=wrap;strokeWidth=2;" vertex="1" parent="1"><mxGeometry x="1013" y="934" width="195" height="52" as="geometry"/></mxCell><mxCell id="32" value="" style="curved=1;startArrow=none;endArrow=block;exitX=1;exitY=0.63;entryX=0;entryY=0.5;" edge="1" parent="1" source="11" target="12"><mxGeometry relative="1" as="geometry"><Array as="points"><mxPoint x="169" y="787"/></Array></mxGeometry></mxCell><mxCell id="33" value="" style="curved=1;startArrow=none;endArrow=block;exitX=1;exitY=0.22;entryX=0;entryY=0.5;" edge="1" parent="1" source="13" target="14"><mxGeometry relative="1" as="geometry"><Array as="points"><mxPoint x="371" y="353"/></Array></mxGeometry></mxCell><mxCell id="34" value="" style="curved=1;startArrow=none;endArrow=block;exitX=1;exitY=0.27;entryX=0;entryY=0.31;" edge="1" parent="1" source="15" target="16"><mxGeometry relative="1" as="geometry"><Array as="points"><mxPoint x="668" y="49"/><mxPoint x="693" y="49"/></Array></mxGeometry></mxCell><mxCell id="35" value="" style="curved=1;startArrow=none;endArrow=block;exitX=1;exitY=0.24;entryX=0;entryY=0.28;" edge="1" parent="1" source="17" target="18"><mxGeometry relative="1" as="geometry"><Array as="points"><mxPoint x="668" y="514"/><mxPoint x="693" y="514"/></Array></mxGeometry></mxCell><mxCell id="36" value="" style="curved=1;startArrow=none;endArrow=block;exitX=1;exitY=0.27;entryX=0;entryY=0.32;" edge="1" parent="1" source="19" target="20"><mxGeometry relative="1" as="geometry"><Array as="points"><mxPoint x="668" y="656"/><mxPoint x="693" y="656"/></Array></mxGeometry></mxCell><mxCell id="37" value="" style="curved=1;startArrow=none;endArrow=block;exitX=1;exitY=0.26;entryX=0;entryY=0.3;" edge="1" parent="1" source="21" target="22"><mxGeometry relative="1" as="geometry"><Array as="points"><mxPoint x="668" y="798"/><mxPoint x="693" y="798"/></Array></mxGeometry></mxCell><mxCell id="38" value="" style="curved=1;startArrow=none;endArrow=block;exitX=1;exitY=0.5;entryX=0;entryY=0.5;" edge="1" parent="1" source="23" target="24"><mxGeometry relative="1" as="geometry"><Array as="points"/></mxGeometry></mxCell><mxCell id="39" value="" style="curved=1;startArrow=none;endArrow=block;exitX=1;exitY=0.19;entryX=0;entryY=0.19;" edge="1" parent="1" source="25" target="26"><mxGeometry relative="1" as="geometry"><Array as="points"><mxPoint x="668" y="940"/><mxPoint x="693" y="940"/></Array></mxGeometry></mxCell><mxCell id="40" value="" style="curved=1;startArrow=none;endArrow=block;exitX=1;exitY=0.23;entryX=0.45;entryY=1;" edge="1" parent="1" source="11" target="13"><mxGeometry relative="1" as="geometry"><Array as="points"><mxPoint x="169" y="757"/><mxPoint x="194" y="757"/></Array></mxGeometry></mxCell><mxCell id="41" value="" style="curved=1;startArrow=none;endArrow=block;exitX=0.8;exitY=0;entryX=0.4;entryY=1;" edge="1" parent="1" source="13" target="15"><mxGeometry relative="1" as="geometry"><Array as="points"><mxPoint x="371" y="313"/><mxPoint x="421" y="313"/></Array></mxGeometry></mxCell><mxCell id="42" value="" style="curved=1;startArrow=none;endArrow=block;exitX=1;exitY=0.5;entryX=0.38;entryY=0;" edge="1" parent="1" source="13" target="17"><mxGeometry relative="1" as="geometry"><Array as="points"><mxPoint x="421" y="373"/></Array></mxGeometry></mxCell><mxCell id="43" value="" style="curved=1;startArrow=none;endArrow=block;exitX=1;exitY=0.78;entryX=0.42;entryY=0;" edge="1" parent="1" source="13" target="19"><mxGeometry relative="1" as="geometry"><Array as="points"><mxPoint x="371" y="393"/><mxPoint x="421" y="393"/></Array></mxGeometry></mxCell><mxCell id="44" value="" style="curved=1;startArrow=none;endArrow=block;exitX=0.95;exitY=1;entryX=0.45;entryY=0;" edge="1" parent="1" source="13" target="21"><mxGeometry relative="1" as="geometry"><Array as="points"><mxPoint x="371" y="413"/><mxPoint x="421" y="413"/></Array></mxGeometry></mxCell><mxCell id="45" value="" style="curved=1;startArrow=none;endArrow=block;exitX=0.95;exitY=0;entryX=0.34;entryY=1;" edge="1" parent="1" source="13" target="23"><mxGeometry relative="1" as="geometry"><Array as="points"><mxPoint x="371" y="333"/><mxPoint x="421" y="333"/></Array></mxGeometry></mxCell><mxCell id="46" value="" style="curved=1;startArrow=none;endArrow=block;exitX=0.8;exitY=1;entryX=0.47;entryY=0;" edge="1" parent="1" source="13" target="25"><mxGeometry relative="1" as="geometry"><Array as="points"><mxPoint x="371" y="433"/><mxPoint x="421" y="433"/></Array></mxGeometry></mxCell><mxCell id="47" value="" style="curved=1;dashed=1;dashPattern=2 3;startArrow=none;endArrow=block;exitX=1;exitY=0.73;entryX=0;entryY=0.69;" edge="1" parent="1" source="15" target="16"><mxGeometry relative="1" as="geometry"><Array as="points"><mxPoint x="668" y="90"/><mxPoint x="693" y="90"/></Array></mxGeometry></mxCell><mxCell id="48" value="" style="curved=1;dashed=1;dashPattern=2 3;startArrow=none;endArrow=block;exitX=1;exitY=0.76;entryX=0;entryY=0.72;" edge="1" parent="1" source="17" target="18"><mxGeometry relative="1" as="geometry"><Array as="points"><mxPoint x="668" y="555"/><mxPoint x="693" y="555"/></Array></mxGeometry></mxCell><mxCell id="49" value="" style="curved=1;dashed=1;dashPattern=2 3;startArrow=none;endArrow=block;exitX=1;exitY=0.73;entryX=0;entryY=0.68;" edge="1" parent="1" source="19" target="20"><mxGeometry relative="1" as="geometry"><Array as="points"><mxPoint x="668" y="697"/><mxPoint x="693" y="697"/></Array></mxGeometry></mxCell><mxCell id="50" value="" style="curved=1;dashed=1;dashPattern=2 3;startArrow=none;endArrow=block;exitX=1;exitY=0.74;entryX=0;entryY=0.7;" edge="1" parent="1" source="21" target="22"><mxGeometry relative="1" as="geometry"><Array as="points"><mxPoint x="668" y="839"/><mxPoint x="693" y="839"/></Array></mxGeometry></mxCell><mxCell id="51" value="" style="curved=1;dashed=1;dashPattern=2 3;startArrow=none;endArrow=block;exitX=1;exitY=0.81;entryX=0;entryY=0.81;" edge="1" parent="1" source="25" target="26"><mxGeometry relative="1" as="geometry"><Array as="points"><mxPoint x="668" y="981"/><mxPoint x="693" y="981"/></Array></mxGeometry></mxCell><mxCell id="52" value="" style="curved=1;startArrow=none;endArrow=block;exitX=1;exitY=0.5;entryX=0;entryY=0.5;" edge="1" parent="1" source="16" target="27"><mxGeometry relative="1" as="geometry"><Array as="points"/></mxGeometry></mxCell><mxCell id="53" value="" style="curved=1;startArrow=none;endArrow=block;exitX=1;exitY=0.5;entryX=0;entryY=0.5;" edge="1" parent="1" source="18" target="28"><mxGeometry relative="1" as="geometry"><Array as="points"/></mxGeometry></mxCell><mxCell id="54" value="" style="curved=1;startArrow=none;endArrow=block;exitX=1;exitY=0.5;entryX=0;entryY=0.5;" edge="1" parent="1" source="20" target="29"><mxGeometry relative="1" as="geometry"><Array as="points"/></mxGeometry></mxCell><mxCell id="55" value="" style="curved=1;startArrow=none;endArrow=block;exitX=1;exitY=0.5;entryX=0;entryY=0.5;" edge="1" parent="1" source="22" target="30"><mxGeometry relative="1" as="geometry"><Array as="points"/></mxGeometry></mxCell><mxCell id="56" value="" style="curved=1;startArrow=none;endArrow=block;exitX=1;exitY=0.5;entryX=0;entryY=0.5;" edge="1" parent="1" source="26" target="31"><mxGeometry relative="1" as="geometry"><Array as="points"/></mxGeometry></mxCell></root></mxGraphModel>